<?xml version="1.0" standalone="no"?>
<!DOCTYPE svg PUBLIC "-//W3C//DTD SVG 20010904//EN"
 "http://www.w3.org/TR/2001/REC-SVG-20010904/DTD/svg10.dtd">
<svg version="1.0" xmlns="http://www.w3.org/2000/svg"
 width="16.000000pt" height="16.000000pt" viewBox="0 0 16.000000 16.000000"
 preserveAspectRatio="xMidYMid meet">
<metadata>
Created by potrace 1.11, written by Peter Selinger 2001-2013
</metadata>
<g transform="translate(0.000000,16.000000) scale(0.003125,-0.003125)"
fill="#000000" stroke="none">
<path d="M2378 5115 c-2 -1 -34 -5 -73 -9 -38 -3 -97 -10 -130 -16 -33 -6 -76
-13 -95 -16 -106 -17 -413 -105 -434 -125 -6 -5 -16 -9 -23 -9 -8 0 -49 -16
-91 -35 -352 -161 -618 -354 -877 -637 -33 -36 -71 -80 -85 -98 -14 -18 -29
-38 -35 -44 -82 -92 -246 -369 -323 -546 -61 -142 -131 -351 -146 -443 -3 -15
-7 -35 -10 -45 -3 -9 -7 -34 -11 -56 -3 -21 -7 -41 -9 -45 -4 -6 -12 -72 -26
-201 -8 -85 -5 -454 4 -515 4 -22 13 -80 21 -130 29 -174 78 -357 142 -520 37
-93 123 -273 161 -335 12 -19 29 -48 38 -65 19 -35 138 -207 156 -227 7 -7 29
-34 48 -58 101 -131 286 -308 454 -434 226 -169 500 -308 781 -395 123 -38
289 -74 405 -87 30 -3 76 -10 102 -14 115 -17 533 -2 669 25 13 3 38 8 54 11
253 45 572 165 803 301 654 386 1101 1026 1232 1761 44 248 48 591 11 837 -82
539 -335 1035 -728 1430 -77 77 -163 154 -207 185 -12 8 -30 23 -41 33 -20 19
-212 147 -275 184 -49 29 -276 143 -285 143 -4 0 -21 6 -38 14 -137 62 -421
138 -607 162 -25 3 -56 8 -70 10 -27 6 -456 14 -462 9z"/>
</g>
</svg>
